<?xml version="1.0" encoding="UTF-8" standalone="no"?>
<!-- Created with Inkscape (http://www.inkscape.org/) -->

<svg
   width="206.91493mm"
   height="276.59848mm"
   viewBox="0 0 206.91493 276.59848"
   version="1.1"
   id="svg1"
   xmlns:inkscape="http://www.inkscape.org/namespaces/inkscape"
   xmlns:sodipodi="http://sodipodi.sourceforge.net/DTD/sodipodi-0.dtd"
   xmlns="http://www.w3.org/2000/svg"
   xmlns:svg="http://www.w3.org/2000/svg">
  <sodipodi:namedview
     id="namedview1"
     pagecolor="#ffffff"
     bordercolor="#000000"
     borderopacity="0.25"
     inkscape:showpageshadow="2"
     inkscape:pageopacity="0.0"
     inkscape:pagecheckerboard="0"
     inkscape:deskcolor="#d1d1d1"
     inkscape:document-units="mm" />
  <defs
     id="defs1" />
  <g
     inkscape:label="Layer 1"
     inkscape:groupmode="layer"
     id="layer1"
     transform="translate(-1.5425276,-2.245773)">
    <path
       style="fill:#000000;stroke:#ff0000;stroke-width:3.43338;stroke-linecap:round;stroke-linejoin:bevel;stroke-dasharray:none;stroke-opacity:1"
       d="M 104.20863,3.4713245 206.98446,106.24716 104.20863,277.96261 3.0292246,102.71474 Z"
       id="path9"
       inkscape:export-filename="enemy.svg"
       inkscape:export-xdpi="96"
       inkscape:export-ydpi="96" />
    <path
       style="fill:#f9f9f9;stroke:#cccccc;stroke-width:0.432955;stroke-linecap:round;stroke-linejoin:bevel"
       d="M 56.093017,62.613004 94.163717,104.40832 93.284018,90.060675 54.792477,38.908181 Z"
       id="path11" />
    <path
       style="fill:#f9f9f9;stroke:#cccccc;stroke-width:0.459507;stroke-linecap:round;stroke-linejoin:bevel"
       d="m 153.07196,62.590966 -34.7184,41.795324 -1.81232,-14.347652 33.36439,-51.152493 z"
       id="path12" />
    <path
       style="fill:#ff0000;stroke:#cccccc;stroke-width:0.373944;stroke-linecap:round;stroke-linejoin:bevel"
       d="m 94.328734,111.8664 -0.165017,-7.45808 -23.496203,-25.794935 0.0054,9.584758 z"
       id="path13"
       inkscape:transform-center-x="27.773781"
       inkscape:transform-center-y="-46.03787"
       sodipodi:nodetypes="ccccc" />
    <path
       style="fill:#ff0000;stroke:#cccccc;stroke-width:0.38243;stroke-linecap:round;stroke-linejoin:bevel"
       d="m 118.47192,111.71752 -0.11832,-7.33123 19.86001,-23.99439 6.18774,4.94148 z"
       id="path14"
       inkscape:transform-center-x="-29.98616"
       inkscape:transform-center-y="-45.793191"
       sodipodi:nodetypes="ccccc" />
    <path
       style="fill:#f9f9f9;stroke:#cccccc;stroke-width:0.363368;stroke-linecap:round;stroke-linejoin:bevel"
       d="m 101.68636,184.12726 6.39747,-0.31276 15.91452,29.33726 -19.04149,-13.79345 -19.324076,13.0773 z"
       id="path15"
       sodipodi:nodetypes="cccccc" />
    <path
       style="fill:#f9f9f9;stroke:#cccccc;stroke-width:0.363368;stroke-linecap:round;stroke-linejoin:bevel"
       d="m 105.00607,111.74708 -7.567116,45.88889 7.567116,-5.26953 z"
       id="path16" />
    <path
       style="fill:#f9f9f9;stroke:#cccccc;stroke-width:0.363368;stroke-linecap:round;stroke-linejoin:bevel"
       d="m 105.00607,111.74708 -3.78236,2.63477 -6.7157,40.83893 2.930944,2.41519 z"
       id="path17" />
    <path
       style="fill:#b3b3b3;stroke:#cccccc;stroke-width:0.0439129;stroke-linecap:round;stroke-linejoin:bevel"
       d="m 97.987959,156.49034 c 1.27e-4,-0.37882 6.499821,-40.01749 6.670661,-40.68133 0.0466,-0.18114 0.0962,7.93149 0.11032,18.02807 l 0.0255,18.3574 -1.15273,0.77571 c -0.634,0.42664 -2.16546,1.48127 -3.40325,2.34359 -1.718517,1.19724 -2.250487,1.47536 -2.250403,1.17656 z"
       id="path18" />
  </g>
</svg>
