<?xml version="1.0" encoding="UTF-8" standalone="no"?>
<!-- Created with Inkscape (http://www.inkscape.org/) -->

<svg
   width="206.91493mm"
   height="276.59848mm"
   viewBox="0 0 206.91493 276.59848"
   version="1.1"
   id="svg1"
   xmlns:inkscape="http://www.inkscape.org/namespaces/inkscape"
   xmlns:sodipodi="http://sodipodi.sourceforge.net/DTD/sodipodi-0.dtd"
   xmlns="http://www.w3.org/2000/svg"
   xmlns:svg="http://www.w3.org/2000/svg">
  <sodipodi:namedview
     id="namedview1"
     pagecolor="#ffffff"
     bordercolor="#000000"
     borderopacity="0.25"
     inkscape:showpageshadow="2"
     inkscape:pageopacity="0.0"
     inkscape:pagecheckerboard="0"
     inkscape:deskcolor="#d1d1d1"
     inkscape:document-units="mm" />
  <defs
     id="defs1" />
  <g
     inkscape:label="Layer 1"
     inkscape:groupmode="layer"
     id="layer1"
     transform="translate(-1.5425276,-2.245773)">
    <path
       style="fill:#000000;stroke:#ffb2b2;stroke-width:3.43338;stroke-linecap:round;stroke-linejoin:bevel;stroke-dasharray:none;stroke-opacity:1"
       d="M 104.20863,3.4713245 206.98446,106.24716 104.20863,277.96261 3.0292246,102.71474 Z"
       id="path9" />
    <path
       style="fill:#f9f9f9;stroke:#cccccc;stroke-width:0.363368;stroke-linecap:round;stroke-linejoin:bevel"
       d="M 59.45434,76.836385 93.706314,47.414802 94.145098,57.514747 60.332259,93.523265 Z"
       id="path10" />
    <path
       style="fill:#f9f9f9;stroke:#cccccc;stroke-width:0.363368;stroke-linecap:round;stroke-linejoin:bevel"
       d="M 59.45434,76.836385 93.706314,47.414802 94.145098,57.514747 60.332259,93.523265 Z"
       id="path11" />
    <path
       style="fill:#f9f9f9;stroke:#cccccc;stroke-width:0.385653;stroke-linecap:round;stroke-linejoin:bevel"
       d="M 156.49558,76.851898 117.91321,47.430315 117.4188,57.53026 155.50655,93.538777 Z"
       id="path12" />
    <path
       style="fill:#ff8080;stroke:#cccccc;stroke-width:0.363368;stroke-linecap:round;stroke-linejoin:bevel"
       d="m 94.145098,57.514747 0.181287,9.221692 -20.161488,26.911178 -7.020974,-7.378603 z"
       id="path13" />
    <path
       style="fill:#ff8080;stroke:#cccccc;stroke-width:0.363368;stroke-linecap:round;stroke-linejoin:bevel"
       d="m 117.4188,57.530246 -0.19226,8.108373 17.09951,23.712926 8.70742,-7.605272 z"
       id="path14" />
    <path
       style="fill:#f9f9f9;stroke:#cccccc;stroke-width:0.363368;stroke-linecap:round;stroke-linejoin:bevel"
       d="m 80.759754,188.81408 49.341856,0.43912 v 9.44125 l -25.09554,9.44126 -24.246316,-8.12387 z"
       id="path15" />
    <path
       style="fill:#f9f9f9;stroke:#cccccc;stroke-width:0.363368;stroke-linecap:round;stroke-linejoin:bevel"
       d="m 105.00607,111.74708 -7.567116,45.88889 7.567116,-5.26953 z"
       id="path16" />
    <path
       style="fill:#f9f9f9;stroke:#cccccc;stroke-width:0.363368;stroke-linecap:round;stroke-linejoin:bevel"
       d="m 105.00607,111.74708 -3.78236,2.63477 -6.7157,40.83893 2.930944,2.41519 z"
       id="path17" />
    <path
       style="fill:#b3b3b3;stroke:#cccccc;stroke-width:0.0439129;stroke-linecap:round;stroke-linejoin:bevel"
       d="m 97.987959,156.49034 c 1.27e-4,-0.37882 6.499821,-40.01749 6.670661,-40.68133 0.0466,-0.18114 0.0962,7.93149 0.11032,18.02807 l 0.0255,18.3574 -1.15273,0.77571 c -0.634,0.42664 -2.16546,1.48127 -3.40325,2.34359 -1.718517,1.19724 -2.250487,1.47536 -2.250403,1.17656 z"
       id="path18" />
  </g>
</svg>
